<mxfile host="app.diagrams.net" agent="Mozilla/5.0 (Windows NT 10.0; Win64; x64) AppleWebKit/537.36 (KHTML, like Gecko) Chrome/128.0.0.0 Safari/537.36" version="24.7.14" pages="2">
  <diagram name="gamma_angles" id="MB9lr71BB9NLt0FFzwej">
    <mxGraphModel dx="1195" dy="650" grid="1" gridSize="10" guides="1" tooltips="1" connect="1" arrows="1" fold="1" page="1" pageScale="1" pageWidth="1169" pageHeight="827" math="1" shadow="0">
      <root>
        <mxCell id="0" />
        <mxCell id="1" parent="0" />
        <mxCell id="tJ5eQsOfjKM9056gqfvt-1" value="$$\overrightarrow{v_{\alpha}}$$" style="text;html=1;align=center;verticalAlign=middle;whiteSpace=wrap;rounded=0;fontSize=16;fontColor=#B85450;" parent="1" vertex="1">
          <mxGeometry x="530" y="190" width="30" height="30" as="geometry" />
        </mxCell>
        <mxCell id="m6q2TzP4oI8TUG3ckuo2-1" value="" style="ellipse;whiteSpace=wrap;html=1;aspect=fixed;fillColor=none;" vertex="1" parent="1">
          <mxGeometry x="240" y="200" width="400" height="400" as="geometry" />
        </mxCell>
        <mxCell id="m6q2TzP4oI8TUG3ckuo2-3" value="" style="verticalLabelPosition=bottom;verticalAlign=top;html=1;shape=mxgraph.basic.arc;startAngle=0.07776985378122954;endAngle=0.2483760263313745;dashed=1;strokeColor=#B85450;" vertex="1" parent="1">
          <mxGeometry x="400" y="360" width="80" height="80" as="geometry" />
        </mxCell>
        <mxCell id="m6q2TzP4oI8TUG3ckuo2-4" value="" style="endArrow=open;html=1;rounded=0;endFill=0;strokeWidth=1;startSize=6;endSize=10;" edge="1" parent="1">
          <mxGeometry width="50" height="50" relative="1" as="geometry">
            <mxPoint x="160" y="400" as="sourcePoint" />
            <mxPoint x="720" y="400" as="targetPoint" />
          </mxGeometry>
        </mxCell>
        <mxCell id="m6q2TzP4oI8TUG3ckuo2-5" value="" style="endArrow=open;html=1;rounded=0;endFill=0;strokeWidth=1;startSize=6;endSize=10;" edge="1" parent="1">
          <mxGeometry width="50" height="50" relative="1" as="geometry">
            <mxPoint x="440" y="680" as="sourcePoint" />
            <mxPoint x="440" y="120" as="targetPoint" />
          </mxGeometry>
        </mxCell>
        <mxCell id="m6q2TzP4oI8TUG3ckuo2-6" value="$$O$$" style="text;html=1;align=center;verticalAlign=middle;whiteSpace=wrap;rounded=0;fontSize=16;" vertex="1" parent="1">
          <mxGeometry x="400" y="399" width="40" height="30" as="geometry" />
        </mxCell>
        <mxCell id="m6q2TzP4oI8TUG3ckuo2-7" value="" style="endArrow=open;html=1;rounded=0;endFill=0;strokeWidth=2;startSize=6;endSize=10;entryX=1;entryY=0;entryDx=0;entryDy=0;fillColor=#ffe6cc;strokeColor=#567299;" edge="1" parent="1" target="m6q2TzP4oI8TUG3ckuo2-1">
          <mxGeometry width="50" height="50" relative="1" as="geometry">
            <mxPoint x="440" y="400" as="sourcePoint" />
            <mxPoint x="580" y="260" as="targetPoint" />
          </mxGeometry>
        </mxCell>
        <mxCell id="m6q2TzP4oI8TUG3ckuo2-8" value="$$\overrightarrow{v_{1}}$$" style="text;html=1;align=center;verticalAlign=middle;whiteSpace=wrap;rounded=0;fontColor=#567299;fontSize=16;" vertex="1" parent="1">
          <mxGeometry x="574" y="235" width="33" height="23" as="geometry" />
        </mxCell>
        <mxCell id="m6q2TzP4oI8TUG3ckuo2-9" value="" style="endArrow=open;html=1;rounded=0;endFill=0;strokeWidth=2;startSize=6;endSize=10;fillColor=#dae8fc;strokeColor=#567299;" edge="1" parent="1">
          <mxGeometry width="50" height="50" relative="1" as="geometry">
            <mxPoint x="440" y="400" as="sourcePoint" />
            <mxPoint x="640" y="400" as="targetPoint" />
          </mxGeometry>
        </mxCell>
        <mxCell id="m6q2TzP4oI8TUG3ckuo2-10" value="$$\overrightarrow{v_{0}}$$" style="text;html=1;align=center;verticalAlign=middle;whiteSpace=wrap;rounded=0;fontColor=#567299;fontSize=16;" vertex="1" parent="1">
          <mxGeometry x="600" y="399" width="40" height="30" as="geometry" />
        </mxCell>
        <mxCell id="m6q2TzP4oI8TUG3ckuo2-11" value="" style="endArrow=open;html=1;rounded=0;endFill=0;strokeWidth=2;startSize=6;endSize=10;entryX=0.727;entryY=0.057;entryDx=0;entryDy=0;entryPerimeter=0;strokeColor=#B85450;" edge="1" parent="1" target="m6q2TzP4oI8TUG3ckuo2-1">
          <mxGeometry width="50" height="50" relative="1" as="geometry">
            <mxPoint x="440" y="400" as="sourcePoint" />
            <mxPoint x="800" y="360" as="targetPoint" />
          </mxGeometry>
        </mxCell>
        <mxCell id="m6q2TzP4oI8TUG3ckuo2-13" value="$$\alpha$$" style="text;html=1;align=center;verticalAlign=middle;whiteSpace=wrap;rounded=0;fontSize=16;fontColor=#B85450;" vertex="1" parent="1">
          <mxGeometry x="469" y="359" width="30" height="30" as="geometry" />
        </mxCell>
        <mxCell id="m6q2TzP4oI8TUG3ckuo2-14" value="" style="verticalLabelPosition=bottom;verticalAlign=top;html=1;shape=mxgraph.basic.arc;startAngle=0.12612873953696954;endAngle=0.25321481407813756;dashed=1;fillColor=#dae8fc;strokeColor=#6c8ebf;fontColor=#567299;" vertex="1" parent="1">
          <mxGeometry x="360" y="320" width="160" height="160" as="geometry" />
        </mxCell>
        <mxCell id="m6q2TzP4oI8TUG3ckuo2-15" value="$$\gamma_{0}$$" style="text;html=1;align=center;verticalAlign=middle;whiteSpace=wrap;rounded=0;fontColor=#567299;fontSize=16;" vertex="1" parent="1">
          <mxGeometry x="514" y="348" width="30" height="30" as="geometry" />
        </mxCell>
        <mxCell id="m6q2TzP4oI8TUG3ckuo2-16" value="" style="endArrow=open;html=1;rounded=0;endFill=0;strokeWidth=2;startSize=6;endSize=10;entryX=0.663;entryY=0.029;entryDx=0;entryDy=0;entryPerimeter=0;fillColor=#f8cecc;strokeColor=#567299;" edge="1" parent="1" target="m6q2TzP4oI8TUG3ckuo2-1">
          <mxGeometry width="50" height="50" relative="1" as="geometry">
            <mxPoint x="440" y="400" as="sourcePoint" />
            <mxPoint x="591" y="269" as="targetPoint" />
          </mxGeometry>
        </mxCell>
        <mxCell id="m6q2TzP4oI8TUG3ckuo2-17" value="$$\overrightarrow{v_{2}}$$" style="text;html=1;align=center;verticalAlign=middle;whiteSpace=wrap;rounded=0;fontColor=#567299;fontSize=16;" vertex="1" parent="1">
          <mxGeometry x="490" y="177" width="33" height="23" as="geometry" />
        </mxCell>
        <mxCell id="m6q2TzP4oI8TUG3ckuo2-18" value="" style="verticalLabelPosition=bottom;verticalAlign=top;html=1;shape=mxgraph.basic.arc;startAngle=0.05373424797811432;endAngle=0.12612873953696954;dashed=1;fillColor=#ffe6cc;strokeColor=#567299;" vertex="1" parent="1">
          <mxGeometry x="320" y="280" width="240" height="240" as="geometry" />
        </mxCell>
        <mxCell id="m6q2TzP4oI8TUG3ckuo2-19" value="$$\gamma_{1}$$" style="text;html=1;align=center;verticalAlign=middle;whiteSpace=wrap;rounded=0;fontColor=#567299;fontSize=16;" vertex="1" parent="1">
          <mxGeometry x="497" y="271" width="30" height="30" as="geometry" />
        </mxCell>
      </root>
    </mxGraphModel>
  </diagram>
  <diagram id="PyFXidrgWrkbgMHg8fXg" name="illustration">
    <mxGraphModel dx="1434" dy="780" grid="1" gridSize="10" guides="1" tooltips="1" connect="1" arrows="1" fold="1" page="1" pageScale="1" pageWidth="1169" pageHeight="827" math="1" shadow="0">
      <root>
        <mxCell id="0" />
        <mxCell id="1" parent="0" />
        <mxCell id="EPEzgZAYAcOLv_YksFXX-1" value="$$\overrightarrow{v_{\alpha}}$$" style="text;html=1;align=center;verticalAlign=middle;whiteSpace=wrap;rounded=0;fontSize=16;fontColor=#B85450;" vertex="1" parent="1">
          <mxGeometry x="530" y="190" width="30" height="30" as="geometry" />
        </mxCell>
        <mxCell id="EPEzgZAYAcOLv_YksFXX-2" value="" style="ellipse;whiteSpace=wrap;html=1;aspect=fixed;fillColor=none;" vertex="1" parent="1">
          <mxGeometry x="240" y="200" width="400" height="400" as="geometry" />
        </mxCell>
        <mxCell id="EPEzgZAYAcOLv_YksFXX-3" value="" style="verticalLabelPosition=bottom;verticalAlign=top;html=1;shape=mxgraph.basic.arc;startAngle=0.07776985378122954;endAngle=0.2483760263313745;dashed=1;strokeColor=#B85450;" vertex="1" parent="1">
          <mxGeometry x="400" y="360" width="80" height="80" as="geometry" />
        </mxCell>
        <mxCell id="EPEzgZAYAcOLv_YksFXX-4" value="" style="endArrow=open;html=1;rounded=0;endFill=0;strokeWidth=1;startSize=6;endSize=10;" edge="1" parent="1">
          <mxGeometry width="50" height="50" relative="1" as="geometry">
            <mxPoint x="160" y="400" as="sourcePoint" />
            <mxPoint x="720" y="400" as="targetPoint" />
          </mxGeometry>
        </mxCell>
        <mxCell id="EPEzgZAYAcOLv_YksFXX-5" value="" style="endArrow=open;html=1;rounded=0;endFill=0;strokeWidth=1;startSize=6;endSize=10;" edge="1" parent="1">
          <mxGeometry width="50" height="50" relative="1" as="geometry">
            <mxPoint x="440" y="680" as="sourcePoint" />
            <mxPoint x="440" y="120" as="targetPoint" />
          </mxGeometry>
        </mxCell>
        <mxCell id="EPEzgZAYAcOLv_YksFXX-6" value="$$O$$" style="text;html=1;align=center;verticalAlign=middle;whiteSpace=wrap;rounded=0;fontSize=16;" vertex="1" parent="1">
          <mxGeometry x="400" y="399" width="40" height="30" as="geometry" />
        </mxCell>
        <mxCell id="EPEzgZAYAcOLv_YksFXX-7" value="" style="endArrow=open;html=1;rounded=0;endFill=0;strokeWidth=2;startSize=6;endSize=10;entryX=1;entryY=0;entryDx=0;entryDy=0;fillColor=#ffe6cc;strokeColor=#567299;" edge="1" parent="1" target="EPEzgZAYAcOLv_YksFXX-2">
          <mxGeometry width="50" height="50" relative="1" as="geometry">
            <mxPoint x="440" y="400" as="sourcePoint" />
            <mxPoint x="580" y="260" as="targetPoint" />
          </mxGeometry>
        </mxCell>
        <mxCell id="EPEzgZAYAcOLv_YksFXX-8" value="$$\overrightarrow{v_{1}}$$" style="text;html=1;align=center;verticalAlign=middle;whiteSpace=wrap;rounded=0;fontColor=#567299;fontSize=16;" vertex="1" parent="1">
          <mxGeometry x="574" y="235" width="33" height="23" as="geometry" />
        </mxCell>
        <mxCell id="EPEzgZAYAcOLv_YksFXX-9" value="" style="endArrow=open;html=1;rounded=0;endFill=0;strokeWidth=2;startSize=6;endSize=10;fillColor=#dae8fc;strokeColor=#567299;" edge="1" parent="1">
          <mxGeometry width="50" height="50" relative="1" as="geometry">
            <mxPoint x="440" y="400" as="sourcePoint" />
            <mxPoint x="640" y="400" as="targetPoint" />
          </mxGeometry>
        </mxCell>
        <mxCell id="EPEzgZAYAcOLv_YksFXX-10" value="$$\overrightarrow{v_{0}}$$" style="text;html=1;align=center;verticalAlign=middle;whiteSpace=wrap;rounded=0;fontColor=#567299;fontSize=16;" vertex="1" parent="1">
          <mxGeometry x="600" y="399" width="40" height="30" as="geometry" />
        </mxCell>
        <mxCell id="EPEzgZAYAcOLv_YksFXX-11" value="" style="endArrow=open;html=1;rounded=0;endFill=0;strokeWidth=2;startSize=6;endSize=10;entryX=0.727;entryY=0.057;entryDx=0;entryDy=0;entryPerimeter=0;strokeColor=#B85450;" edge="1" parent="1" target="EPEzgZAYAcOLv_YksFXX-2">
          <mxGeometry width="50" height="50" relative="1" as="geometry">
            <mxPoint x="440" y="400" as="sourcePoint" />
            <mxPoint x="800" y="360" as="targetPoint" />
          </mxGeometry>
        </mxCell>
        <mxCell id="EPEzgZAYAcOLv_YksFXX-12" value="$$\alpha$$" style="text;html=1;align=center;verticalAlign=middle;whiteSpace=wrap;rounded=0;fontSize=16;fontColor=#B85450;" vertex="1" parent="1">
          <mxGeometry x="469" y="359" width="30" height="30" as="geometry" />
        </mxCell>
        <mxCell id="EPEzgZAYAcOLv_YksFXX-13" value="" style="verticalLabelPosition=bottom;verticalAlign=top;html=1;shape=mxgraph.basic.arc;startAngle=0.12612873953696954;endAngle=0.25321481407813756;dashed=1;fillColor=#dae8fc;strokeColor=#6c8ebf;fontColor=#567299;" vertex="1" parent="1">
          <mxGeometry x="360" y="320" width="160" height="160" as="geometry" />
        </mxCell>
        <mxCell id="EPEzgZAYAcOLv_YksFXX-14" value="$$\gamma_{0}$$" style="text;html=1;align=center;verticalAlign=middle;whiteSpace=wrap;rounded=0;fontColor=#567299;fontSize=16;" vertex="1" parent="1">
          <mxGeometry x="514" y="348" width="30" height="30" as="geometry" />
        </mxCell>
        <mxCell id="EPEzgZAYAcOLv_YksFXX-15" value="" style="endArrow=open;html=1;rounded=0;endFill=0;strokeWidth=2;startSize=6;endSize=10;entryX=0.663;entryY=0.029;entryDx=0;entryDy=0;entryPerimeter=0;fillColor=#f8cecc;strokeColor=#567299;" edge="1" parent="1" target="EPEzgZAYAcOLv_YksFXX-2">
          <mxGeometry width="50" height="50" relative="1" as="geometry">
            <mxPoint x="440" y="400" as="sourcePoint" />
            <mxPoint x="591" y="269" as="targetPoint" />
          </mxGeometry>
        </mxCell>
        <mxCell id="EPEzgZAYAcOLv_YksFXX-16" value="$$\overrightarrow{v_{2}}$$" style="text;html=1;align=center;verticalAlign=middle;whiteSpace=wrap;rounded=0;fontColor=#567299;fontSize=16;" vertex="1" parent="1">
          <mxGeometry x="490" y="177" width="33" height="23" as="geometry" />
        </mxCell>
        <mxCell id="EPEzgZAYAcOLv_YksFXX-17" value="" style="verticalLabelPosition=bottom;verticalAlign=top;html=1;shape=mxgraph.basic.arc;startAngle=0.05373424797811432;endAngle=0.12612873953696954;dashed=1;fillColor=#ffe6cc;strokeColor=#567299;" vertex="1" parent="1">
          <mxGeometry x="320" y="280" width="240" height="240" as="geometry" />
        </mxCell>
        <mxCell id="EPEzgZAYAcOLv_YksFXX-18" value="$$\gamma_{1}$$" style="text;html=1;align=center;verticalAlign=middle;whiteSpace=wrap;rounded=0;fontColor=#567299;fontSize=16;" vertex="1" parent="1">
          <mxGeometry x="497" y="271" width="30" height="30" as="geometry" />
        </mxCell>
        <mxCell id="EPEzgZAYAcOLv_YksFXX-19" value="&lt;span style=&quot;font-size: 16px;&quot;&gt;$$\overrightarrow{v_{i+1}}=\cos{\left(\arctan{\left({2}^{-i}\right)}\right)}\begin{bmatrix} 1 &amp;amp; -\sigma_{i}{2}^{-i}\\ \sigma_{i}{2}^{-i} &amp;amp; 1 \end{bmatrix}\overrightarrow{v_{i}}$$&lt;/span&gt;" style="text;html=1;align=center;verticalAlign=middle;whiteSpace=wrap;rounded=0;fillColor=#f5f5f5;fontColor=#333333;strokeColor=#666666;" vertex="1" parent="1">
          <mxGeometry x="50" y="240" width="384" height="80" as="geometry" />
        </mxCell>
      </root>
    </mxGraphModel>
  </diagram>
</mxfile>
